<?xml version="1.0" standalone="no"?>
<!DOCTYPE svg PUBLIC "-//W3C//DTD SVG 20010904//EN"
 "http://www.w3.org/TR/2001/REC-SVG-20010904/DTD/svg10.dtd">
<svg version="1.0" xmlns="http://www.w3.org/2000/svg"
 width="1376.000000pt" height="1376.000000pt" viewBox="0 0 1376.000000 1376.000000"
 preserveAspectRatio="xMidYMid meet">
<metadata>
Created by potrace 1.14, written by Peter Selinger 2001-2017
</metadata>
<g transform="translate(0.000000,1376.000000) scale(0.100000,-0.100000)"
fill="#000000" stroke="none">
<path d="M9569 11366 c-2 -3 -197 -7 -434 -11 -440 -7 -506 -8 -775 -20 -85
-4 -202 -9 -260 -11 -114 -4 -192 -9 -340 -18 -52 -4 -133 -9 -180 -11 -47 -3
-114 -7 -150 -10 -36 -3 -94 -8 -130 -10 -36 -3 -94 -7 -130 -10 -36 -3 -92
-8 -125 -10 -33 -2 -87 -7 -120 -10 -33 -4 -82 -8 -110 -10 -27 -3 -70 -6 -95
-9 -25 -2 -79 -7 -120 -11 -41 -4 -88 -8 -105 -10 -16 -2 -57 -6 -90 -9 -33
-3 -82 -9 -110 -12 -27 -4 -68 -8 -90 -10 -48 -4 -104 -10 -165 -18 -25 -3
-67 -8 -95 -11 -27 -3 -66 -7 -85 -10 -19 -3 -57 -7 -85 -11 -27 -3 -61 -7
-75 -9 -14 -3 -79 -11 -145 -20 -66 -8 -136 -17 -155 -20 -19 -3 -55 -7 -80
-10 -25 -2 -56 -7 -70 -9 -14 -3 -45 -8 -70 -11 -45 -6 -76 -11 -129 -20 -31
-5 -103 -16 -136 -19 -11 -2 -36 -6 -55 -9 -39 -7 -84 -14 -145 -23 -22 -3
-62 -9 -90 -14 -76 -14 -107 -20 -145 -26 -19 -3 -46 -7 -60 -10 -65 -11 -97
-17 -115 -19 -11 -1 -20 -3 -20 -4 0 -1 -16 -4 -35 -7 -19 -2 -46 -6 -60 -10
-14 -3 -36 -8 -50 -10 -41 -7 -123 -23 -150 -29 -14 -3 -45 -8 -70 -11 -25 -3
-49 -8 -53 -11 -4 -2 -20 -6 -35 -8 -15 -3 -38 -7 -52 -10 -14 -2 -47 -9 -75
-15 -27 -6 -61 -13 -75 -16 -14 -3 -36 -7 -50 -10 -14 -2 -45 -9 -70 -14 -25
-6 -55 -12 -68 -15 -13 -2 -31 -6 -40 -9 -9 -3 -30 -8 -47 -11 -16 -2 -39 -7
-50 -10 -19 -4 -180 -42 -190 -44 -3 -1 -6 -1 -7 -2 -2 0 -11 -2 -21 -4 -10
-2 -26 -7 -35 -10 -9 -4 -34 -9 -56 -11 -21 -2 -43 -7 -50 -11 -6 -4 -18 -9
-26 -10 -8 -1 -87 -21 -175 -43 -88 -23 -167 -43 -175 -45 -43 -9 -76 -18 -85
-24 -5 -3 -14 -6 -20 -7 -37 -6 -170 -45 -425 -125 -74 -23 -139 -44 -145 -45
-32 -8 -327 -113 -390 -139 -16 -7 -73 -29 -125 -50 -114 -46 -249 -103 -270
-116 -8 -5 -24 -13 -35 -18 -11 -5 -45 -21 -75 -35 -50 -24 -75 -38 -190 -102
-73 -40 -190 -118 -190 -126 0 -4 -5 -8 -11 -8 -13 0 -78 -51 -152 -120 -49
-46 -83 -87 -185 -225 -18 -25 -116 -243 -127 -285 -1 -3 -4 -12 -8 -20 -15
-36 -49 -166 -66 -251 -20 -96 -26 -129 -36 -209 -3 -25 -7 -63 -10 -85 -28
-217 -27 -776 1 -1078 3 -34 7 -84 9 -112 2 -27 4 -50 5 -50 2 0 10 -85 11
-115 1 -8 5 -44 10 -80 8 -65 14 -107 24 -190 3 -25 10 -72 16 -105 6 -34 10
-65 9 -70 -2 -6 -1 -12 0 -15 4 -11 10 -47 16 -90 3 -25 7 -56 10 -70 3 -14 7
-36 9 -50 1 -14 13 -81 25 -150 12 -69 23 -136 25 -150 2 -14 4 -25 5 -25 1 0
3 -11 6 -25 4 -25 27 -150 29 -160 6 -23 17 -80 19 -100 2 -14 6 -32 9 -40 3
-8 8 -31 11 -50 3 -19 7 -46 10 -60 3 -14 11 -50 17 -80 6 -30 17 -79 25 -109
8 -30 12 -57 9 -59 -2 -3 0 -13 6 -23 5 -10 11 -31 13 -46 6 -37 15 -80 26
-123 5 -19 11 -46 14 -60 3 -14 11 -50 19 -80 8 -30 18 -73 22 -95 11 -52 11
-53 25 -105 12 -43 14 -54 25 -101 2 -11 7 -29 10 -39 3 -10 7 -27 9 -37 2
-10 16 -63 31 -118 14 -55 30 -116 35 -135 14 -58 50 -194 57 -210 3 -8 7 -24
8 -35 3 -19 35 -133 47 -165 3 -8 12 -42 19 -75 7 -33 17 -66 22 -73 5 -6 7
-12 3 -12 -3 0 -1 -12 5 -28 6 -15 12 -34 14 -42 2 -8 15 -55 30 -105 14 -49
28 -97 30 -105 2 -8 4 -16 5 -17 2 -2 3 -6 5 -10 18 -66 16 -64 54 -58 33 4
80 10 186 21 22 2 81 9 130 15 50 6 108 13 130 14 22 2 40 4 40 5 0 1 118 12
157 14 16 0 28 3 28 6 0 3 17 5 38 6 36 1 129 10 207 20 22 3 60 7 85 9 25 2
56 5 70 8 14 3 54 8 90 11 59 5 103 10 183 21 29 4 33 0 42 -47 13 -68 18 -88
40 -164 13 -45 29 -93 36 -105 7 -13 11 -24 10 -24 -10 0 67 -159 112 -235 39
-65 128 -190 157 -221 8 -8 36 -38 61 -65 65 -69 113 -112 194 -172 39 -29 75
-57 82 -62 7 -6 15 -10 17 -10 3 0 29 -15 58 -33 49 -30 88 -50 178 -91 42
-18 205 -73 240 -80 14 -2 48 -10 75 -16 143 -31 502 -34 587 -5 7 2 29 6 48
9 19 3 51 10 70 16 19 6 46 13 59 16 90 18 366 149 436 206 6 5 33 26 62 46
225 165 411 405 525 682 20 47 41 106 48 135 1 6 9 30 16 55 8 25 17 65 20 90
3 25 8 48 11 53 9 15 16 124 17 249 1 125 1 128 24 130 39 3 79 7 207 23 17 2
30 4 30 5 0 1 18 3 40 5 22 2 65 6 95 9 30 3 71 7 90 10 19 2 60 7 90 11 30 3
71 8 90 10 85 11 128 16 175 20 28 3 68 8 90 11 22 3 63 8 90 10 28 2 64 6 80
8 17 3 57 7 90 10 33 4 76 9 95 11 19 2 58 7 85 10 28 3 61 8 75 10 26 5 107
14 175 20 22 2 63 6 90 10 66 8 120 14 175 20 42 4 117 12 185 20 17 2 48 6
70 9 71 10 149 19 185 21 19 2 35 4 35 5 0 1 16 3 35 5 63 5 120 14 132 21 7
5 8 3 3 -6 -5 -8 -4 -11 2 -7 11 7 50 13 143 22 30 3 89 10 130 15 41 5 98 12
125 15 28 3 66 8 85 10 19 3 62 8 95 11 33 4 74 8 90 10 88 11 145 13 145 7 1
-5 3 -44 5 -89 3 -82 13 -177 20 -204 2 -8 7 -31 10 -50 7 -44 32 -135 48
-175 6 -16 12 -34 12 -40 0 -5 10 -30 22 -55 12 -25 23 -52 25 -60 7 -30 124
-229 176 -300 78 -105 250 -273 362 -352 111 -79 280 -164 400 -204 47 -15 92
-30 100 -32 8 -3 22 -7 30 -8 8 -1 47 -9 85 -18 197 -43 481 -37 675 14 19 5
37 9 40 9 13 -1 234 82 248 93 8 7 17 12 19 10 9 -8 208 110 260 153 6 6 30
23 52 39 23 17 41 33 41 38 0 4 4 8 9 8 10 0 129 117 179 176 63 74 168 240
214 334 45 95 70 160 65 171 -1 3 3 12 9 20 7 8 21 52 33 99 20 84 24 102 38
190 15 90 5 472 -13 501 -3 5 -7 22 -10 37 -3 15 -7 34 -10 43 -2 9 1 16 8 16
22 0 201 20 257 28 18 3 38 8 44 12 6 3 7 1 3 -5 -4 -7 3 -8 24 -2 17 5 65 12
107 15 43 4 80 8 83 10 3 2 38 6 78 9 40 3 83 8 95 11 12 2 49 7 82 10 33 3
78 8 100 11 98 12 124 15 180 20 33 3 72 6 88 7 15 1 27 4 27 7 0 3 17 5 38 6
42 1 154 12 192 20 27 5 62 70 142 264 21 52 43 104 48 115 12 28 35 98 35
110 0 6 4 16 8 22 5 7 10 21 12 30 3 10 9 36 15 58 6 22 13 48 15 58 2 10 7
27 10 37 10 33 60 278 70 345 3 23 7 52 10 65 2 13 7 46 10 74 3 28 8 62 10
76 55 374 50 1157 -11 1620 -2 19 -6 57 -9 83 -3 27 -9 66 -14 88 -6 25 -5 39
1 39 7 0 7 5 0 13 -6 7 -13 33 -16 57 -8 72 -16 123 -22 150 -3 14 -8 41 -10
60 -5 37 -7 49 -17 90 -3 14 -13 63 -22 110 -9 47 -18 92 -20 100 -2 8 -8 35
-14 60 -5 25 -12 59 -15 75 -3 17 -11 46 -16 65 -6 19 -14 46 -17 60 -10 50
-12 55 -13 58 -3 2 -4 6 -14 47 -4 17 -16 59 -27 95 -11 36 -21 75 -23 87 -3
12 -9 30 -15 41 -5 10 -12 29 -14 43 -2 13 -7 31 -10 39 -3 8 -16 47 -28 85
-12 39 -25 75 -29 80 -7 9 -17 45 -21 70 0 6 -6 19 -12 30 -6 11 -12 22 -12
25 -1 3 -7 19 -14 35 -6 17 -16 44 -22 60 -6 17 -19 48 -29 70 -10 22 -24 56
-32 75 -17 44 -168 348 -209 420 -56 100 -196 304 -258 377 -34 40 -61 75 -61
77 0 7 -127 131 -196 190 -93 80 -102 87 -149 116 -22 13 -42 26 -45 29 -3 4
-16 12 -29 20 -83 46 -111 61 -113 60 -2 0 -28 10 -58 23 -52 23 -102 41 -125
43 -5 1 -20 4 -32 9 -28 9 -58 15 -108 21 -22 3 -56 7 -75 10 -19 2 -66 7
-105 10 -38 3 -99 7 -135 10 -36 3 -90 8 -120 10 -30 3 -95 8 -145 11 -49 3
-124 7 -165 10 -173 10 -416 22 -625 29 -55 2 -266 7 -469 10 -203 3 -372 8
-376 10 -4 3 -9 3 -11 1z m771 -640 c47 -2 155 -7 240 -10 167 -6 278 -12 405
-22 44 -3 109 -7 145 -9 107 -6 241 -16 279 -21 20 -2 78 -7 129 -10 84 -5
127 -10 127 -14 0 -1 20 -3 45 -5 25 -3 54 -8 65 -13 97 -43 128 -60 185 -97
74 -49 205 -174 267 -255 24 -30 46 -59 51 -65 22 -27 113 -169 155 -240 58
-100 177 -349 177 -370 0 -8 5 -15 10 -15 6 0 10 -7 10 -15 0 -8 4 -23 9 -33
5 -9 14 -30 21 -47 7 -16 16 -38 21 -47 5 -10 9 -26 9 -36 0 -10 4 -22 9 -28
9 -9 98 -276 126 -379 28 -100 85 -319 89 -340 7 -32 35 -167 42 -200 21 -103
31 -158 38 -210 2 -16 7 -41 10 -55 6 -29 22 -130 31 -205 2 -16 6 -46 9 -65
2 -19 7 -60 11 -90 3 -30 8 -73 11 -95 4 -37 7 -66 18 -215 25 -331 25 -828 1
-1015 -2 -16 -7 -59 -10 -95 -8 -94 -16 -162 -28 -235 -1 -5 -6 -13 -12 -17
-6 -5 -6 -8 1 -8 7 0 5 -27 -7 -82 -10 -46 -20 -94 -22 -108 -3 -14 -10 -45
-17 -70 -7 -25 -14 -54 -16 -65 -6 -33 -63 -209 -72 -223 -10 -15 -35 -19
-207 -37 -16 -1 -52 -6 -80 -9 -81 -10 -207 -24 -275 -31 -50 -5 -115 -13
-175 -20 -22 -3 -67 -8 -100 -11 -33 -3 -70 -7 -83 -9 -13 -2 -53 -7 -90 -10
-37 -4 -78 -9 -92 -11 -23 -4 -120 -14 -180 -19 -16 -1 -30 6 -40 21 -34 49
-151 165 -233 229 -21 17 -51 40 -67 53 -15 12 -32 22 -37 22 -6 0 -18 9 -28
20 -10 11 -24 20 -32 20 -7 0 -13 3 -13 8 0 4 -15 13 -32 21 -18 8 -35 17 -38
20 -8 10 -159 77 -215 96 -27 9 -57 20 -65 23 -8 3 -24 7 -35 9 -11 2 -31 7
-45 12 -69 26 -232 44 -395 43 -148 0 -188 -4 -332 -33 -29 -6 -55 -10 -58
-10 -3 0 -51 -16 -107 -35 -107 -37 -260 -109 -338 -159 -25 -16 -47 -27 -49
-26 -2 2 -7 -1 -10 -6 -3 -5 -33 -30 -66 -55 -33 -25 -80 -64 -105 -87 -25
-22 -48 -41 -52 -41 -5 0 -8 -5 -8 -10 0 -6 -15 -25 -33 -43 -29 -27 -101
-111 -169 -196 -10 -12 -18 -26 -18 -31 0 -6 -4 -10 -8 -10 -5 0 -35 -38 -66
-85 -32 -47 -63 -85 -69 -86 -7 -1 -23 -2 -37 -4 -14 -1 -56 -6 -95 -10 -38
-3 -81 -8 -95 -11 -14 -2 -47 -6 -75 -9 -90 -10 -139 -15 -175 -19 -98 -12
-134 -16 -187 -22 -91 -9 -125 -13 -168 -18 -22 -3 -65 -8 -95 -11 -77 -8
-140 -15 -175 -20 -16 -2 -57 -6 -90 -10 -33 -4 -71 -8 -85 -11 -14 -2 -54 -6
-90 -10 -36 -3 -78 -8 -95 -10 -16 -2 -52 -5 -80 -8 -27 -3 -88 -9 -135 -15
-47 -6 -107 -13 -135 -16 -146 -16 -153 -17 -265 -31 -25 -3 -65 -7 -90 -9
-25 -3 -65 -7 -90 -9 -25 -3 -67 -7 -94 -10 -26 -3 -65 -8 -85 -11 -20 -2 -58
-7 -86 -10 -27 -2 -75 -8 -105 -12 -30 -4 -72 -7 -92 -7 -21 -1 -38 -3 -38 -6
0 -3 -12 -5 -27 -6 -16 -1 -55 -4 -88 -8 -33 -3 -78 -8 -100 -11 -22 -2 -58
-6 -80 -9 -22 -3 -69 -8 -105 -12 -36 -3 -76 -8 -90 -10 -14 -2 -50 -6 -80 -9
-30 -3 -70 -8 -89 -11 -18 -2 -59 -7 -90 -9 -31 -3 -65 -7 -76 -10 -11 -2 -25
-1 -31 3 -13 9 -74 109 -74 121 0 5 -4 11 -8 13 -5 2 -23 26 -42 53 -47 69
-43 64 -160 184 -58 59 -132 127 -165 152 -33 24 -62 46 -65 49 -8 10 -139 90
-146 90 -3 0 -18 9 -32 19 -15 10 -30 19 -34 20 -5 1 -33 12 -64 26 -31 14
-59 25 -61 25 -3 0 -19 6 -36 13 -48 21 -160 54 -212 63 -155 26 -226 32 -355
29 -80 -2 -156 -6 -170 -9 -14 -2 -41 -7 -60 -10 -19 -3 -53 -10 -75 -16 -22
-5 -42 -9 -45 -10 -3 0 -23 -5 -45 -11 -22 -6 -42 -11 -45 -11 -3 0 -27 -9
-55 -20 -78 -31 -100 -39 -102 -39 -7 1 -181 -93 -230 -125 -50 -32 -173 -126
-209 -159 -61 -55 -124 -119 -124 -127 0 -5 -4 -7 -9 -3 -6 3 -15 -4 -22 -17
-6 -12 -21 -31 -31 -42 -73 -77 -268 -403 -251 -419 3 -4 1 -7 -5 -7 -7 0 -11
-3 -10 -8 1 -4 -5 -23 -14 -42 -8 -19 -20 -52 -27 -72 -7 -21 -16 -40 -20 -42
-3 -3 -45 -7 -91 -11 -46 -4 -87 -8 -90 -10 -3 -1 -41 -6 -84 -10 -43 -4 -87
-8 -97 -10 -10 -2 -46 -7 -81 -10 -35 -4 -76 -9 -93 -11 -16 -2 -57 -6 -90 -8
-33 -3 -78 -8 -100 -12 -22 -3 -60 -7 -85 -9 -25 -1 -45 -4 -45 -5 0 -1 -23
-3 -52 -6 l-51 -5 -17 58 c-10 32 -18 63 -20 68 -6 26 -17 71 -21 83 -2 7 -4
14 -4 17 -1 3 -6 19 -12 37 -5 18 -14 49 -18 68 -5 19 -25 96 -45 170 -20 74
-37 145 -37 158 0 12 -4 22 -8 22 -4 0 -10 17 -13 38 -7 43 -11 62 -26 117 -6
22 -12 51 -15 65 -2 14 -5 25 -6 25 -1 0 -3 7 -5 15 -2 8 -11 49 -20 90 -20
86 -31 134 -39 170 -12 50 -83 391 -90 432 -3 15 -7 31 -9 35 -3 5 -8 30 -11
57 -4 27 -9 52 -10 55 -2 3 -7 28 -10 55 -4 27 -9 52 -11 56 -2 3 -6 26 -10
50 -3 25 -8 52 -10 60 -5 19 -13 70 -35 210 -11 72 -14 91 -24 143 -3 12 -7
42 -10 67 -3 25 -8 56 -10 70 -15 86 -34 233 -42 315 -2 27 -7 61 -9 75 -3 14
-8 54 -10 90 -3 36 -7 79 -10 95 -30 225 -48 810 -31 995 3 30 8 85 10 122 5
63 10 97 21 158 3 14 7 39 10 55 6 37 21 103 25 115 1 3 3 10 4 15 1 6 5 17 8
25 4 8 14 37 23 65 49 150 139 260 301 368 110 73 389 218 484 252 3 1 19 7
35 14 93 37 240 93 305 116 41 15 82 29 90 32 8 4 20 7 25 8 6 0 23 7 39 13
16 7 36 14 45 16 9 2 23 6 31 9 81 30 549 168 667 196 21 5 103 25 183 46 80
20 153 39 162 41 10 2 26 6 35 8 10 2 68 16 128 30 61 14 121 28 135 30 14 3
25 5 25 6 0 2 13 5 55 13 14 3 36 8 50 11 14 3 36 8 50 11 14 2 135 27 270 55
135 28 261 53 280 56 37 6 63 10 95 17 11 3 40 8 65 13 25 4 47 8 50 9 3 0 27
4 53 9 27 4 59 10 70 12 26 6 71 13 112 19 24 4 207 34 425 70 19 4 54 8 78
10 23 2 50 6 60 9 15 5 66 13 132 21 14 2 25 4 25 5 0 1 14 3 30 4 27 2 118
14 155 21 25 5 124 18 150 21 45 4 124 15 151 19 14 3 52 7 85 10 32 3 70 8
84 10 32 5 90 12 165 21 33 3 74 8 90 10 17 2 53 5 80 8 28 3 73 7 100 11 28
3 70 8 95 10 25 3 65 7 90 9 25 3 74 8 110 11 36 3 81 8 100 10 19 2 67 7 105
10 39 3 90 8 115 10 25 2 74 6 110 10 112 9 162 13 260 20 52 3 115 8 140 10
66 5 225 16 300 20 228 12 285 16 375 21 55 3 159 7 230 9 72 3 130 5 130 5 0
1 83 4 185 6 101 3 186 6 187 8 5 4 1331 -3 1423 -8z m228 -5336 c99 -24 102
-25 197 -70 65 -32 133 -73 179 -110 75 -59 206 -205 206 -229 0 -6 5 -11 10
-11 6 0 10 -6 10 -14 0 -8 4 -16 8 -18 14 -6 83 -161 99 -223 29 -114 46 -327
29 -382 -2 -10 -8 -36 -11 -58 -7 -45 -13 -70 -15 -70 -1 0 -3 -7 -5 -15 -6
-34 -37 -114 -61 -163 -117 -230 -308 -398 -555 -487 -46 -17 -84 -30 -84 -29
0 1 -89 -11 -120 -17 -27 -5 -195 -6 -220 0 -11 2 -40 7 -65 12 -57 10 -45 7
-115 28 -86 26 -239 107 -304 161 -76 62 -201 202 -201 224 0 6 -4 11 -9 11
-8 0 -63 106 -96 185 -58 143 -76 384 -40 535 3 14 8 36 11 49 3 13 11 39 19
57 8 19 12 34 10 34 -8 0 69 147 105 200 88 130 218 246 355 317 75 38 188 80
245 89 14 2 45 8 70 12 79 14 255 5 348 -18z m-6578 -444 c14 -2 25 -5 25 -6
0 -1 11 -3 25 -6 109 -19 295 -110 389 -189 104 -88 186 -188 246 -300 35 -67
89 -205 79 -205 -3 0 -2 -6 3 -12 32 -52 38 -312 10 -438 -9 -38 -29 -107 -37
-125 -78 -181 -111 -233 -220 -344 -67 -69 -96 -92 -167 -138 -107 -68 -247
-123 -363 -141 -57 -9 -275 -8 -315 1 -16 4 -39 9 -50 11 -11 2 -40 9 -65 16
-25 7 -47 12 -50 12 -12 -1 -218 111 -249 136 -75 58 -180 171 -230 245 -28
42 -49 77 -45 77 4 0 0 8 -8 18 -20 23 -76 168 -83 217 -2 11 -8 45 -14 75
-10 56 -8 275 4 320 3 14 8 36 11 50 2 14 7 32 11 40 3 8 8 24 10 34 7 36 81
184 123 246 35 51 150 175 204 218 28 23 176 112 176 107 0 -3 11 2 25 11 14
9 25 12 25 8 0 -5 4 -4 8 1 10 14 112 45 197 60 64 11 265 12 325 1z"/>
<path d="M5910 9188 c-1 -90 -1 -276 0 -415 0 -162 -3 -254 -10 -258 -5 -3
-10 -3 -10 2 0 19 -137 63 -220 71 -143 13 -358 4 -415 -18 -14 -5 -25 -7 -25
-4 0 4 -6 2 -12 -4 -7 -6 -17 -11 -23 -12 -73 -9 -218 -82 -300 -150 -29 -24
-130 -126 -150 -152 -54 -68 -138 -246 -151 -318 -3 -14 -7 -32 -10 -40 -4 -8
-8 -28 -10 -45 -1 -16 -6 -46 -10 -65 -10 -47 -10 -324 -1 -380 13 -74 29
-154 35 -170 3 -8 6 -18 7 -22 2 -5 3 -9 4 -10 2 -2 4 -14 7 -27 2 -13 25 -65
50 -114 111 -223 246 -350 441 -415 104 -35 163 -44 298 -43 111 0 144 3 163
14 6 5 12 6 12 2 0 -7 179 86 186 97 3 4 9 6 14 3 4 -3 13 2 20 10 7 8 16 15
21 15 5 0 27 11 48 24 21 13 42 21 48 18 5 -4 33 -44 62 -90 l53 -83 204 1
c183 1 204 3 205 18 0 9 0 53 -1 97 0 44 -1 87 -1 95 1 8 1 62 0 120 0 58 0
112 0 120 1 763 1 2173 1 2223 l0 67 -265 0 -265 0 0 -162z m-218 -1028 c77
-20 159 -61 194 -95 l24 -24 -1 -418 c0 -307 -3 -422 -12 -433 -23 -29 -124
-87 -164 -95 -13 -2 -27 -6 -33 -10 -14 -8 -55 -16 -107 -19 -23 -1 -45 -5
-49 -9 -4 -3 -11 -4 -17 0 -5 3 -28 7 -51 9 -33 2 -64 7 -83 13 -2 1 -5 1 -8
1 -10 -1 -71 34 -102 58 -86 65 -152 210 -169 372 -5 46 -4 227 1 265 17 133
55 227 117 295 27 31 88 75 88 64 0 -4 9 1 20 11 11 10 20 16 20 13 0 -3 24 0
53 7 75 18 201 16 279 -5z"/>
<path d="M6907 9342 c-16 -3 -17 -98 -17 -1363 l0 -1359 23 0 c213 -5 427 -3
427 3 0 5 4 5 10 2 15 -9 470 -11 470 -2 0 5 5 5 10 2 11 -7 289 -7 345 -1
179 21 327 83 451 188 133 114 216 270 241 453 14 105 5 294 -16 333 -5 10 -8
19 -8 22 3 11 -38 96 -67 140 -80 120 -277 257 -408 284 -42 9 -83 24 -70 26
13 3 28 6 40 10 4 1 10 2 15 1 4 -1 23 5 42 14 20 8 38 14 40 14 3 0 29 11 58
26 54 26 147 105 147 125 0 5 4 10 9 10 11 0 77 134 85 170 7 35 14 70 22 105
12 50 6 191 -10 285 -38 210 -201 393 -413 463 -92 30 -114 35 -207 43 -72 6
-1190 11 -1219 6z m1003 -477 c40 -9 102 -38 143 -69 38 -28 91 -111 106 -166
14 -55 20 -179 9 -186 -5 -3 -6 -9 -4 -13 6 -9 -10 -75 -27 -111 -29 -63 -116
-147 -162 -157 -5 -1 -24 -6 -40 -11 -17 -5 -49 -9 -73 -8 -23 0 -42 -2 -42
-5 0 -5 -37 -4 -50 1 -3 1 -9 2 -14 1 -31 -6 -88 -6 -92 1 -3 4 -13 4 -24 0
-10 -4 -50 -6 -89 -4 -57 3 -70 7 -70 20 0 9 -2 32 -4 50 -2 17 1 32 6 32 4 0
5 5 1 12 -6 9 -7 92 -4 223 1 6 1 39 0 75 0 36 0 72 0 80 1 8 1 44 0 80 0 36
1 72 1 80 1 8 0 20 -1 25 -1 6 -2 21 -1 35 l1 26 198 -2 c108 0 213 -4 232 -9z
m50 -988 c108 -14 224 -94 267 -187 78 -166 48 -426 -60 -531 -39 -38 -118
-76 -173 -84 -58 -8 -499 -9 -512 -1 -7 4 -8 15 -2 30 4 12 5 29 0 36 -4 7 -4
25 0 41 5 15 6 30 3 33 -9 9 -9 66 0 66 4 0 5 5 1 12 -6 9 -7 92 -4 223 1 6 1
39 1 75 -1 36 0 74 0 85 0 11 -1 35 -3 53 -2 17 0 32 4 32 5 0 5 8 1 18 -5 9
-7 26 -7 37 1 11 2 32 3 46 l1 26 223 -3 c122 -1 238 -5 257 -7z"/>
<path d="M3297 8634 c-1 -1 -27 -5 -57 -8 -203 -24 -415 -131 -569 -287 -81
-82 -101 -105 -101 -114 0 -4 -11 -21 -25 -39 -50 -66 -117 -232 -140 -351
-26 -131 -23 -367 6 -493 6 -26 12 -54 14 -62 2 -8 14 -45 28 -81 102 -270
297 -461 564 -553 166 -57 393 -81 560 -61 32 4 69 9 83 10 81 9 255 46 325
69 6 2 14 4 19 4 5 0 12 4 15 9 3 4 27 18 52 30 46 21 47 22 45 68 -1 26 2 49
6 51 5 3 6 10 2 15 -9 15 -11 99 -3 105 4 2 4 17 0 32 -5 15 -4 37 0 50 5 12
5 22 1 22 -8 0 -8 88 1 96 3 3 2 16 -3 29 -5 13 -6 26 -2 30 8 9 1 6 -43 -15
-16 -8 -33 -19 -37 -25 -4 -5 -8 -7 -8 -3 0 4 -21 -2 -47 -14 -44 -20 -157
-55 -198 -63 -11 -2 -31 -6 -45 -9 -283 -64 -512 -25 -645 108 -55 55 -118
170 -129 236 -2 14 -7 33 -11 43 -4 9 -3 18 1 18 5 1 322 3 704 4 382 2 698 3
701 4 6 1 5 43 -5 161 -7 90 -19 160 -27 166 -5 3 -6 10 -3 16 4 5 1 29 -6 52
-36 116 -62 191 -75 217 -9 16 -14 30 -13 31 2 2 -7 17 -20 35 -12 17 -22 36
-22 42 0 6 -4 11 -10 11 -5 0 -10 5 -10 11 0 16 -90 127 -141 174 -89 82 -193
146 -284 175 -22 7 -46 17 -52 23 -7 5 -13 7 -13 4 0 -3 -14 -2 -32 3 -58 17
-112 23 -231 24 -65 1 -119 1 -120 0z m221 -476 c112 -31 194 -93 257 -193 30
-49 70 -153 79 -207 l5 -28 -459 0 c-443 0 -459 1 -455 19 2 10 6 34 9 52 20
126 96 246 198 313 72 47 268 71 366 44z"/>
<path d="M12029 8626 c-2 -2 -28 -7 -57 -11 -106 -13 -302 -95 -334 -140 -4
-5 -8 -6 -8 -1 0 4 -33 -25 -74 -66 -146 -145 -193 -287 -170 -513 5 -57 36
-151 67 -204 52 -89 185 -189 287 -217 120 -32 176 -44 230 -49 134 -11 166
-14 193 -19 15 -3 38 -8 51 -11 81 -17 157 -69 177 -122 11 -29 5 -114 -10
-142 -18 -32 -70 -70 -114 -82 -63 -18 -66 -19 -147 -24 -41 -2 -77 -5 -80 -6
-3 -1 -9 -1 -14 0 -4 1 -40 4 -80 6 -39 3 -82 6 -96 9 -54 9 -96 17 -115 23
-11 3 -29 7 -40 8 -25 3 -191 69 -269 106 -32 16 -62 27 -65 24 -4 -2 -7 -108
-6 -235 l0 -231 25 -14 c71 -40 246 -96 345 -110 22 -4 47 -8 55 -10 42 -12
171 -20 305 -20 137 0 169 3 245 20 14 3 36 8 50 11 56 11 227 104 283 154
165 149 242 362 214 594 -4 26 -9 56 -12 66 -3 10 -8 27 -10 38 -4 25 -59 136
-77 157 -45 53 -78 83 -113 106 -51 32 -130 69 -149 69 -8 0 -18 5 -21 10 -3
6 -19 10 -35 10 -16 0 -32 5 -35 10 -4 6 -10 8 -14 6 -4 -3 -26 0 -49 5 -52
11 -103 18 -157 20 -89 3 -239 38 -282 67 -47 30 -70 124 -38 156 8 8 15 19
15 25 0 5 26 22 58 38 53 26 66 28 192 29 124 1 166 -3 360 -40 8 -1 22 -5 30
-8 28 -12 165 -59 175 -61 6 -1 10 84 10 240 0 155 -4 243 -10 244 -5 1 -19 6
-29 11 -30 16 -122 36 -303 64 -38 6 -349 14 -354 10z"/>
<path d="M2008 8585 c-1 -2 -19 -5 -39 -8 -20 -2 -42 -8 -48 -11 -12 -8 -47
-17 -68 -18 -7 -1 -13 -4 -13 -8 0 -4 -6 -7 -14 -7 -14 0 -127 -53 -136 -64
-3 -3 -27 -19 -55 -34 -27 -16 -61 -37 -75 -48 -31 -24 -36 -13 -34 87 1 80
-1 84 -51 80 -225 -15 -415 -27 -452 -28 -28 0 -33 -4 -34 -26 -1 -27 0 -1870
1 -1882 0 -5 121 -8 268 -8 l269 0 -1 636 c-1 349 2 644 6 655 4 10 38 39 76
64 117 75 269 104 453 85 65 -7 210 -59 240 -86 16 -14 17 -11 20 36 2 29 0
54 -4 57 -4 3 -4 10 2 17 6 7 6 17 1 26 -5 9 -5 19 1 26 6 8 7 14 0 18 -6 4
-6 18 -1 35 5 17 4 33 -2 39 -6 6 -6 12 1 16 8 5 8 13 1 26 -7 13 -7 21 0 25
8 5 7 11 -1 21 -9 11 -9 14 0 14 8 0 9 5 2 19 -6 10 -7 21 -4 25 8 7 10 66 3
66 -5 0 -5 52 0 75 1 6 1 15 0 20 -1 6 -3 16 -4 22 0 7 -4 13 -8 14 -4 0 -30
7 -58 14 -43 11 -232 19 -242 10z"/>
<path d="M10452 8515 c-3 -5 -6 -296 -6 -647 -1 -626 -1 -638 -21 -652 -11 -8
-31 -23 -44 -35 -13 -12 -30 -21 -38 -21 -7 0 -13 -4 -13 -9 0 -8 -109 -61
-134 -65 -6 -1 -15 -4 -21 -8 -13 -8 -212 -3 -250 6 -77 18 -155 107 -173 194
-6 27 -9 297 -8 635 1 383 -3 591 -9 596 -5 4 -127 7 -270 7 l-260 -1 -1 -690
c0 -379 4 -710 8 -735 5 -25 10 -55 13 -68 5 -29 39 -119 57 -152 36 -67 89
-129 154 -181 31 -24 145 -79 165 -79 10 0 20 -4 24 -9 3 -6 13 -9 23 -9 9 0
42 -3 72 -7 150 -20 302 7 455 81 91 44 172 87 190 101 25 20 95 53 96 46 1
-4 2 -51 2 -103 l2 -95 253 -5 c164 -3 256 -1 260 5 9 13 11 1886 3 1900 -8
13 -521 14 -529 0z"/>
</g>
</svg>
